<svg width="3121" height="317" viewBox="0 0 3121 317" fill="none" xmlns="http://www.w3.org/2000/svg">
<path d="M1 148C120.629 113.451 442.787 1 733.941 1C1025.1 1 1147.17 162.451 1627.37 104.647C2107.57 46.8441 2150.54 1 2327.46 1C2548.6 1 2884.74 104.647 3116 104.647" stroke="#6D6D6D"/>
<path d="M6 170C125.621 135.333 443.966 48 735.101 48C1026.24 48 1148.3 210 1628.47 152C2108.64 94 2151.6 48 2328.51 48C2549.64 48 2885.76 152 3117 152" stroke="#6D6D6D" stroke-width="2"/>
<path d="M14 202.884C133.644 168.081 444.465 105 735.655 105C1026.84 105 1148.93 267.638 1629.19 209.41C2109.45 151.181 2152.42 105 2329.36 105C2550.53 105 2886.72 209.41 3118 209.41" stroke="#6D6D6D"/>
<path d="M18 225.79C143.142 190.15 446.01 152 737.249 152C1028.49 152 1150.6 314.638 1630.94 256.41C2111.28 198.181 2154.26 152 2331.23 152C2552.44 152 2888.68 256.41 3120 256.41" stroke="#6D6D6D" stroke-width="2"/>
<path d="M26 247.691C147.323 227.612 447.597 199 738.773 199C1029.95 199 1152.03 361.638 1632.27 303.41C2112.5 245.181 2155.47 199 2332.4 199C2553.56 199 2889.73 303.41 3121 303.41" stroke="#6D6D6D"/>
</svg>
