<svg width="156" height="251" viewBox="0 0 156 251" fill="none" xmlns="http://www.w3.org/2000/svg">
<path d="M84.7736 8.60599C75.8728 8.37502 65.4631 29.6177 65.8091 48.5624C65.8895 54.3325 67.7117 66.035 70.3703 80.7324C53.6035 98.0772 34.1338 115.878 34.1338 139.234C33.8665 160.637 46.9545 187.906 78.0066 187.643C82.7727 187.611 87.0616 187.021 90.8715 186.004C93.7106 201.561 95.5983 213.839 95.5868 219.51C95.6869 241.869 66.2946 244.082 64.8858 231.231C71.0804 231.018 76.0089 226.1 76.0089 220.018C76.0089 213.806 70.8623 208.74 64.4757 208.74C60.9643 208.74 57.835 210.281 55.7127 212.691C55.6635 212.74 55.6061 212.789 55.5585 212.839C55.0796 213.347 54.6761 213.953 54.2776 214.642C52.9688 216.855 52.1192 220.035 52.0733 224.576C52.0733 243.296 99.4312 255.344 99.4312 218.428C99.5051 213.461 97.368 200.856 94.2551 184.972C128.046 172.759 119.557 122.615 88.4639 122.379C86.0529 122.403 83.7289 122.684 81.4934 123.251C79.7221 114.732 78.0131 106.464 76.5206 98.8657C88.3277 87.2746 98.6374 72.2707 98.4062 44.6184C98.4423 24.7607 91.8228 8.83713 84.7736 8.60599ZM86.8746 27.8162C90.9027 27.4277 94.1009 31.1652 94.1009 39.3925C94.4273 53.5227 84.5227 65.8629 72.7287 78.2736C71.6003 71.4757 70.8606 65.9678 70.7803 62.7008C71.1149 40.6269 80.16 28.4637 86.8746 27.8162ZM74.2147 101.069C75.653 108.47 77.2062 116.268 78.7758 124.121C58.1958 131.439 48.3191 160.109 77.4949 172.94C59.7112 157.808 68.4645 139.896 81.2868 136.775C84.5112 152.865 87.6602 168.743 90.2057 182.463C86.75 183.677 82.717 184.381 78.0066 184.414C66.229 184.414 42.6935 176.923 42.6935 148.556C42.6935 124.797 59.1716 115.142 74.2147 101.069ZM84.2094 136.262C84.7228 136.23 85.2788 136.244 85.7971 136.262C107.222 136.262 115.303 170.268 93.4859 181.136C90.7715 167.497 87.4798 151.859 84.2094 136.262Z" fill="#434343" stroke="#434343"/>
</svg>
