<svg width="32" height="32" viewBox="0 0 32 32" fill="none" xmlns="http://www.w3.org/2000/svg">
<path d="M32 0L29.0847 28.7967L15.9804 32L2.91219 28.8012L0 0H32Z" fill="#264DE4"/>
<path d="M26.5889 26.963L29.0802 2.35492H16V29.5515L26.5889 26.963Z" fill="#2965F1"/>
<path d="M6.67615 13.0369L7.0352 16.5692H16V13.0369H6.67615Z" fill="#EBEBEB"/>
<path d="M16 5.88727H15.9862H5.95471L6.31888 9.41965H16V5.88727Z" fill="#EBEBEB"/>
<path d="M16 25.8858V22.2107L15.9825 22.2148L11.5209 21.1525L11.2357 18.3353H9.06771H7.21423L7.77548 23.8816L15.9816 25.8903L16 25.8858Z" fill="#EBEBEB"/>
<path d="M20.9192 16.5691L20.4542 21.1503L15.9862 22.2137V25.8886L24.1989 23.8816L24.2591 23.2849L25.2005 13.9854L25.2982 13.0368L26.0215 5.88727H15.9862V9.41965H21.6312L21.2666 13.0368H15.9862V16.5691H20.9192Z" fill="white"/>
</svg>
