<svg width="32" height="32" viewBox="0 0 32 32" fill="none" xmlns="http://www.w3.org/2000/svg">
<path d="M30.144 0L27.584 28.8L16 32L4.48004 28.8L1.92004 0H30.144Z" fill="#525252"/>
<path d="M25.376 26.976L27.584 2.36798H16.064V29.568L25.376 26.976Z" fill="#626262"/>
<path d="M7.80798 13.024L8.12798 16.544H16.032V13.024H7.80798Z" fill="#EBEBEB"/>
<path d="M16.032 5.888H7.16797L7.48797 9.408H16.032V5.888Z" fill="#EBEBEB"/>
<path d="M16.032 25.888V22.208L12.096 21.152L11.84 18.336H9.91996H8.28796L8.76796 23.872L16.032 25.888Z" fill="#EBEBEB"/>
<path d="M20.352 16.576L19.936 21.152L16 22.208V25.888L23.232 23.872L23.296 23.264L24.128 13.952L24.224 12.992L24.864 5.85602H16V9.37602H20.992L20.672 12.992H16V16.512H20.352V16.576Z" fill="white"/>
</svg>
