<svg width="32" height="32" viewBox="0 0 32 32" fill="none" xmlns="http://www.w3.org/2000/svg">
<g clip-path="url(#clip0_13_152)">
<rect width="32" height="32" fill="white"/>
<path d="M32 0H0V32H32V0Z" fill="#F7DF1E"/>
<path d="M21.6348 24.7975C22.3072 25.7815 23.1821 26.5048 24.7293 26.5048C26.0291 26.5048 26.8594 25.9226 26.8594 25.1181C26.8594 24.154 26.0063 23.8125 24.5756 23.2516L23.7914 22.9501C21.5278 22.0857 20.024 21.0029 20.024 18.7138C20.024 16.6052 21.8166 15 24.618 15C26.6125 15 28.0463 15.6221 29.0796 17.2511L26.6369 18.6568C26.099 17.7925 25.5188 17.452 24.618 17.452C23.6992 17.452 23.1169 17.9744 23.1169 18.6568C23.1169 19.5003 23.6998 19.8418 25.0456 20.3642L25.8299 20.6653C28.4951 21.6896 30 22.734 30 25.082C30 27.6133 27.7814 29 24.8019 29C21.8886 29 20.0065 27.7557 19.0856 26.1249L21.6348 24.7975ZM10.5535 25.0411C11.0463 25.8247 11.4945 26.4872 12.5723 26.4872C13.6029 26.4872 14.2531 26.1258 14.2531 24.7205V15.1605H17.39V24.7585C17.39 27.6698 15.4856 28.9948 12.7058 28.9948C10.1942 28.9948 8.73971 27.8298 8 26.4267L10.5535 25.0411Z" fill="black"/>
</g>
<defs>
<clipPath id="clip0_13_152">
<rect width="32" height="32" fill="white"/>
</clipPath>
</defs>
</svg>
