<svg width="32" height="32" viewBox="0 0 32 32" fill="none" xmlns="http://www.w3.org/2000/svg">
<g clip-path="url(#clip0_13_151)">
<path d="M32 0H0V32H32V0Z" fill="#D1D1D1"/>
<path d="M21.504 24.992C22.144 26.048 22.976 26.816 24.48 26.816C25.728 26.816 26.528 26.208 26.528 25.344C26.528 24.32 25.696 23.936 24.352 23.36L23.616 23.04C21.44 22.112 20 20.96 20 18.496C20 16.256 21.728 14.528 24.416 14.528C26.336 14.528 27.712 15.2 28.704 16.928L26.368 18.432C25.856 17.504 25.312 17.152 24.448 17.152C23.552 17.152 23.008 17.696 23.008 18.432C23.008 19.328 23.552 19.712 24.864 20.256L25.6 20.576C28.16 21.664 29.6 22.784 29.6 25.312C29.6 28.032 27.488 29.504 24.608 29.504C21.824 29.504 20 28.16 19.136 26.432L21.504 24.992ZM10.88 25.248C11.36 26.08 11.776 26.784 12.8 26.784C13.792 26.784 14.4 26.4 14.4 24.896V14.656H17.408V24.96C17.408 28.064 15.584 29.504 12.928 29.504C10.528 29.504 9.12002 28.256 8.41602 26.752L10.88 25.248Z" fill="black"/>
</g>
<defs>
<clipPath id="clip0_13_151">
<rect width="32" height="32" fill="white"/>
</clipPath>
</defs>
</svg>
