<svg width="32" height="32" viewBox="0 0 32 32" fill="none" xmlns="http://www.w3.org/2000/svg">
<path d="M15.9367 18.816C17.4892 18.816 18.7248 17.568 18.7248 16C18.7248 14.432 17.4892 13.184 15.9367 13.184C14.3842 13.184 13.1486 14.432 13.1486 16C13.1486 17.568 14.3842 18.816 15.9367 18.816Z" fill="#B9B9B9"/>
<path d="M15.9366 21.792C24.2059 21.792 30.9227 19.2 30.9227 16C30.9227 12.8 24.2059 10.208 15.9366 10.208C7.66727 10.208 0.950439 12.8 0.950439 16C0.950439 19.2 7.66727 21.792 15.9366 21.792Z" stroke="#B9B9B9"/>
<path d="M10.9941 18.88C15.1129 26.144 20.6891 30.72 23.4455 29.12C26.1703 27.52 25.0614 20.352 20.9109 13.12C16.7604 5.85601 11.1842 1.28001 8.4594 2.88001C5.70296 4.48001 6.84356 11.648 10.9941 18.88Z" stroke="#B9B9B9"/>
<path d="M10.994 13.12C6.84351 20.352 5.7346 27.52 8.45935 29.12C11.1841 30.72 16.7603 26.144 20.8792 18.88C25.0297 11.648 26.1702 4.48001 23.4455 2.88001C20.6891 1.28001 15.1128 5.85601 10.994 13.12Z" stroke="#B9B9B9"/>
</svg>
