<svg width="34" height="32" viewBox="0 0 34 32" fill="none" xmlns="http://www.w3.org/2000/svg">
<path d="M17 18.8212C18.6468 18.8212 19.9818 17.5581 19.9818 16C19.9818 14.4419 18.6468 13.1788 17 13.1788C15.3532 13.1788 14.0182 14.4419 14.0182 16C14.0182 17.5581 15.3532 18.8212 17 18.8212Z" fill="#61DAFB"/>
<path d="M17 21.78C25.8366 21.78 33 19.1922 33 16C33 12.8078 25.8366 10.22 17 10.22C8.16344 10.22 1 12.8078 1 16C1 19.1922 8.16344 21.78 17 21.78Z" stroke="#61DAFB"/>
<path d="M11.7094 18.89C16.1277 26.1305 22.0781 30.7061 25 29.11C27.922 27.5139 26.7089 20.3505 22.2906 13.11C17.8724 5.86956 11.922 1.29391 9.00002 2.89002C6.07809 4.48612 7.29112 11.6496 11.7094 18.89Z" stroke="#61DAFB"/>
<path d="M11.7094 13.11C7.29112 20.3504 6.07809 27.5139 9.00002 29.11C11.922 30.7061 17.8724 26.1305 22.2906 18.89C26.7089 11.6496 27.922 4.48612 25 2.89001C22.0781 1.2939 16.1277 5.86955 11.7094 13.11Z" stroke="#61DAFB"/>
</svg>
