<svg width="32" height="32" viewBox="0 0 32 32" fill="none" xmlns="http://www.w3.org/2000/svg">
<path d="M0 0H32V32H0V0Z" fill="#017ACB"/>
<path d="M15.365 11.85H16.9V14.5H12.75V26.29L12.64 26.32C12.49 26.36 10.515 26.36 10.09 26.315L9.74998 26.285V14.5H5.59998V11.85L6.91498 11.835C7.63498 11.825 9.48498 11.825 11.025 11.835C12.565 11.845 14.515 11.85 15.365 11.85ZM27.08 25.04C26.47 25.685 25.815 26.045 24.725 26.34C24.25 26.47 24.17 26.475 23.1 26.47C22.03 26.465 21.945 26.465 21.425 26.33C20.08 25.985 18.995 25.31 18.255 24.355C18.045 24.085 17.7 23.525 17.7 23.455C17.7 23.435 17.75 23.39 17.815 23.36C17.88 23.33 18.015 23.245 18.125 23.18C18.235 23.115 18.435 22.995 18.57 22.925C18.705 22.855 19.095 22.625 19.435 22.42C19.775 22.215 20.085 22.05 20.12 22.05C20.155 22.05 20.22 22.12 20.27 22.205C20.57 22.71 21.27 23.355 21.765 23.575C22.07 23.705 22.745 23.85 23.07 23.85C23.37 23.85 23.92 23.72 24.215 23.585C24.53 23.44 24.69 23.295 24.88 23.005C25.01 22.8 25.025 22.745 25.02 22.355C25.02 21.995 25 21.895 24.9 21.73C24.62 21.27 24.24 21.03 22.7 20.35C21.11 19.645 20.395 19.225 19.815 18.66C19.385 18.24 19.3 18.125 19.03 17.6C18.68 16.925 18.635 16.705 18.63 15.7C18.625 14.995 18.64 14.765 18.715 14.525C18.82 14.165 19.16 13.47 19.315 13.295C19.635 12.92 19.75 12.805 19.975 12.62C20.655 12.06 21.715 11.69 22.73 11.655C22.845 11.655 23.225 11.675 23.58 11.7C24.6 11.785 25.295 12.035 25.965 12.57C26.47 12.97 27.235 13.91 27.16 14.035C27.11 14.11 25.115 15.44 24.985 15.48C24.905 15.505 24.85 15.475 24.74 15.345C24.06 14.53 23.785 14.355 23.125 14.315C22.655 14.285 22.405 14.34 22.09 14.55C21.76 14.77 21.6 15.105 21.6 15.57C21.605 16.25 21.865 16.57 22.825 17.045C23.445 17.35 23.975 17.6 24.015 17.6C24.075 17.6 25.36 18.24 25.695 18.44C27.255 19.355 27.89 20.295 28.055 21.915C28.175 23.135 27.83 24.25 27.08 25.04Z" fill="white"/>
</svg>
