<svg width="32" height="32" viewBox="0 0 32 32" fill="none" xmlns="http://www.w3.org/2000/svg">
<g clip-path="url(#clip0_13_165)">
<path d="M0 0H32V32H0V0Z" fill="#5F5F5F"/>
<path d="M15.36 11.84H16.896V14.496H12.736V26.272L12.64 26.304C12.48 26.336 10.528 26.336 10.08 26.304L9.72799 26.272V14.496H5.56799V11.84H6.87999C7.58399 11.84 9.43999 11.84 10.976 11.84C12.576 11.84 14.528 11.84 15.36 11.84ZM27.072 25.056C26.464 25.696 25.792 26.048 24.704 26.368C24.224 26.496 24.16 26.496 23.072 26.496C22.016 26.496 21.92 26.496 21.408 26.368C20.064 26.016 18.976 25.344 18.24 24.384C18.016 24.128 17.696 23.552 17.696 23.488C17.696 23.456 17.76 23.424 17.824 23.392C17.888 23.36 18.016 23.264 18.144 23.2C18.24 23.136 18.464 23.008 18.592 22.944C18.72 22.88 19.104 22.656 19.456 22.432C19.808 22.24 20.096 22.048 20.128 22.048C20.16 22.048 20.224 22.112 20.288 22.208C20.576 22.72 21.28 23.36 21.792 23.584C22.112 23.712 22.784 23.872 23.104 23.872C23.392 23.872 23.968 23.744 24.256 23.616C24.576 23.456 24.736 23.328 24.928 23.04C25.056 22.848 25.088 22.784 25.056 22.4C25.056 22.048 25.024 21.952 24.928 21.76C24.64 21.312 24.256 21.056 22.72 20.384C21.12 19.68 20.416 19.264 19.84 18.688C19.424 18.272 19.328 18.144 19.04 17.632C18.688 16.96 18.656 16.736 18.656 15.744C18.656 15.04 18.656 14.816 18.752 14.56C18.848 14.208 19.2 13.504 19.36 13.344C19.68 12.96 19.808 12.864 20.032 12.672C20.704 12.096 21.76 11.744 22.784 11.712C22.912 11.712 23.264 11.744 23.648 11.744C24.672 11.84 25.376 12.064 26.048 12.608C26.56 12.992 27.328 13.952 27.232 14.08C27.168 14.144 25.184 15.488 25.056 15.52C24.992 15.552 24.928 15.52 24.8 15.392C24.128 14.592 23.84 14.4 23.2 14.368C22.72 14.336 22.496 14.4 22.176 14.592C21.856 14.816 21.696 15.136 21.696 15.616C21.696 16.288 21.952 16.608 22.912 17.088C23.52 17.408 24.064 17.632 24.096 17.632C24.16 17.632 25.44 18.272 25.76 18.464C27.328 19.392 27.968 20.32 28.128 21.952C28.16 23.136 27.84 24.256 27.072 25.056Z" fill="white"/>
</g>
<defs>
<clipPath id="clip0_13_165">
<rect width="32" height="32" fill="white"/>
</clipPath>
</defs>
</svg>
